<?xml version="1.0" encoding="UTF-8"?>
<svg id="Layer_1" xmlns="http://www.w3.org/2000/svg" version="1.1" viewBox="0 0 360 116">
  <!-- Generator: Adobe Illustrator 29.8.1, SVG Export Plug-In . SVG Version: 2.1.1 Build 2)  -->
  <defs>
    <style>
      .st0 {
        fill: #fff;
      }
    </style>
  </defs>
  <g>
    <path class="st0" d="M15.42,7.44h6l5.95,16.15,14.63-16.15h6.78l-9.17,34.14h-5.99l6.58-24.46-15.02,16.07h-.19l-6.27-15.99-6.55,24.38h-5.9L15.42,7.44Z"/>
    <path class="st0" d="M85.06,21.82c-.06,5.43-2.26,10.62-6.12,14.44-3.74,3.8-8.86,5.93-14.19,5.89-9.17,0-15.29-6.48-15.29-14.96.05-5.43,2.25-10.63,6.12-14.44,3.71-3.79,8.79-5.92,14.1-5.89,9.25,0,15.38,6.48,15.38,14.96ZM74.38,32.8c2.8-2.84,4.4-6.65,4.46-10.63,0-5.61-3.61-9.81-9.7-9.81-3.4.03-6.64,1.43-9,3.88-2.79,2.83-4.38,6.63-4.44,10.6,0,5.71,3.61,9.79,9.7,9.79,3.39-.03,6.62-1.41,8.98-3.83Z"/>
    <path class="st0" d="M98.08,12.99h-10.88l1.51-5.56h27.71l-1.52,5.56h-10.83l-7.71,28.54h-5.99l7.71-28.54Z"/>
    <path class="st0" d="M120.8,7.44h6.04l-9.17,34.14h-6.04l9.17-34.14Z"/>
    <path class="st0" d="M163.45,21.82c-.06,5.43-2.26,10.62-6.12,14.44-3.74,3.8-8.86,5.93-14.19,5.89-9.17,0-15.29-6.48-15.29-14.96.05-5.43,2.25-10.63,6.12-14.44,3.72-3.8,8.83-5.93,14.15-5.89,9.21,0,15.33,6.48,15.33,14.96ZM152.75,32.8c2.79-2.84,4.37-6.65,4.43-10.63,0-5.61-3.61-9.81-9.7-9.81-3.38.03-6.61,1.42-8.97,3.85-2.79,2.84-4.38,6.65-4.44,10.63,0,5.66,3.61,9.81,9.7,9.81,3.39-.03,6.62-1.42,8.98-3.85Z"/>
    <path class="st0" d="M173.28,7.44h5.57l11.55,24.1,6.54-24.14h5.89l-9.17,34.14h-5.03l-11.93-24.78-6.64,24.82h-5.94l9.15-34.14Z"/>
    <path class="st0" d="M5.77,45.86h15.22c4.29,0,7.66,1.27,9.86,3.41,1.88,1.99,2.89,4.64,2.82,7.37v.09c0,5.61-3.36,8.97-8.09,10.34l9.17,12.93h-7.14l-8.33-11.9h-7.51v11.9h-6v-34.14ZM20.55,62.79c4.29,0,7.02-2.25,7.02-5.71v-.1c0-3.66-2.63-5.66-7.07-5.66h-8.73v11.47h8.78Z"/>
    <path class="st0" d="M39.33,45.86h25.31v5.37h-19.37v8.87h17.12v5.41h-17.07v9.17h19.56v5.31h-25.55v-34.14Z"/>
    <path class="st0" d="M68.79,63.03v-.09c-.22-9.53,7.32-17.43,16.85-17.65.23,0,.47,0,.7,0,5.02-.2,9.89,1.73,13.41,5.31l-3.85,4.44c-2.78-2.54-5.66-4.2-9.61-4.2-6.43,0-11.21,5.32-11.21,12v.1c0,6.68,4.73,12.09,11.21,12.09,4.2,0,6.88-1.65,9.81-4.38l3.85,3.9c-3.51,3.7-7.41,6.07-13.8,6.07-9.46.13-17.24-7.44-17.36-16.9,0-.23,0-.45,0-.68Z"/>
    <path class="st0" d="M104.63,45.86h15.22c4.29,0,7.66,1.27,9.85,3.41,1.88,1.98,2.9,4.63,2.83,7.37v.09c0,5.61-3.36,8.97-8.1,10.34l9.17,12.93h-7.14l-8.39-11.9h-7.51v11.9h-5.99l.06-34.14ZM119.41,62.79c4.29,0,7.02-2.25,7.02-5.71v-.1c0-3.66-2.64-5.66-7.07-5.66h-8.74v11.47h8.79Z"/>
    <path class="st0" d="M137.64,65.51v-19.65h6v19.46c0,6.34,3.26,9.71,8.62,9.71s8.59-3.18,8.59-9.47v-19.7h5.99v19.37c0,10.19-5.75,15.29-14.68,15.29s-14.54-5.11-14.54-15Z"/>
    <path class="st0" d="M173.74,45.86h6.02v34.14h-5.99l-.03-34.14Z"/>
    <path class="st0" d="M195.48,51.43h-10.88v-5.57h27.78v5.57h-10.9v28.54h-6v-28.54Z"/>
    <path class="st0" d="M216.89,45.86h6.39l10.39,16.15,10.39-16.15h6.39v34.14h-6v-24.46l-10.77,16.07h-.19l-10.68-15.99v24.38h-5.9v-34.14Z"/>
    <path class="st0" d="M257.52,45.86h25.31v5.37h-19.32v8.87h17.17v5.41h-17.12v9.17h19.56v5.31h-25.6v-34.14Z"/>
    <path class="st0" d="M288.48,45.86h5.56l18.29,23.61v-23.61h5.9v34.14h-5.03l-18.83-24.28v24.28h-5.89v-34.14Z"/>
    <path class="st0" d="M333.68,51.43h-10.92v-5.57h27.75v5.57h-10.88v28.54h-5.95v-28.54Z"/>
  </g>
  <g>
    <path class="st0" d="M13.08,89.9h2.31l7.32,17.97h-2.44l-1.93-4.88h-8.19l-1.95,4.88h-2.44l7.32-17.97ZM17.44,100.81l-3.21-7.96-3.21,7.96h6.42Z"/>
    <path class="st0" d="M31.05,89.9h2.31v9.5l8.73-9.5h2.95l-6.93,7.45,7.57,10.53h-2.82l-6.29-8.86-3.21,3.47v5.39h-2.31v-17.97Z"/>
    <path class="st0" d="M46.45,101.71c0-3.59,2.82-6.42,6.16-6.42s6.03,2.57,6.03,6.03c0,.64-.13,1.16-.13,1.16h-9.76c.26,1.93,1.93,3.59,4.11,3.59,2.44,0,3.72-1.8,3.72-1.8l1.41,1.41s-1.67,2.44-5.13,2.44-6.42-2.82-6.42-6.42ZM56.47,100.55c-.39-1.8-1.8-3.21-3.85-3.21s-3.47,1.41-3.85,3.21h7.7Z"/>
    <path class="st0" d="M61.86,89.9h2.18v17.97h-2.18v-17.97Z"/>
    <path class="st0" d="M68.15,89.9h2.18v17.97h-2.18v-17.97Z"/>
    <path class="st0" d="M73.41,113.01v-2.05s.64.26,1.41.26c1.16,0,1.82-.64,2.31-1.8l.64-1.54-5.01-12.32h2.31l3.72,9.5,3.72-9.5h2.31l-5.52,13.99c-1.03,2.57-2.18,3.72-4.11,3.72-1.03,0-1.8-.26-1.8-.26Z"/>
    <path class="st0" d="M85.99,99.27c0-2.2,1.76-3.95,4.01-3.95s4.01,1.76,4.01,3.95-1.76,3.95-4.01,3.95-4.01-1.76-4.01-3.95ZM93.23,99.27c0-1.81-1.43-3.24-3.24-3.24s-3.24,1.43-3.24,3.24,1.43,3.24,3.24,3.24,3.24-1.43,3.24-3.24ZM88.62,97.24h1.59c.82,0,1.37.55,1.37,1.3,0,.85-.77,1.12-.77,1.12l.93,1.65h-.76l-.83-1.48h-.82v1.48h-.71v-4.06ZM90.22,99.11c.44,0,.66-.22.66-.57s-.22-.58-.66-.58h-.88v1.15h.88Z"/>
    <g>
      <path class="st0" d="M101.79,98.89c0-5.13,4.11-9.24,9.37-9.24,4.88,0,7.32,3.59,7.32,3.59l-1.54,1.54s-1.8-2.95-5.78-2.95-7.06,3.08-7.06,7.06,3.08,7.06,7.06,7.06,5.9-2.95,5.9-2.95l1.54,1.54s-2.57,3.59-7.44,3.59c-5.26,0-9.37-4.11-9.37-9.24Z"/>
      <path class="st0" d="M120.54,101.71c0-3.59,2.82-6.42,6.29-6.42s6.29,2.82,6.29,6.42-2.82,6.42-6.29,6.42-6.29-2.82-6.29-6.42ZM130.93,101.71c0-2.57-1.8-4.36-4.11-4.36s-4.11,1.8-4.11,4.36,1.8,4.36,4.11,4.36,4.11-1.8,4.11-4.36Z"/>
      <path class="st0" d="M136.2,95.55h2.18v1.67s1.03-1.93,3.47-1.93c2.95,0,3.98,2.18,3.98,2.18,0,0,1.28-2.18,4.36-2.18,2.57,0,4.62,2.05,4.62,5.26v7.32h-2.18v-7.32c0-2.05-1.16-3.21-2.82-3.21-1.8,0-3.21,1.41-3.21,3.72v6.8h-2.18v-7.32c0-1.93-1.28-3.21-2.95-3.21s-3.08,1.41-3.08,3.72v6.8h-2.18v-12.32Z"/>
      <path class="st0" d="M158.66,95.55h2.18v1.8s1.28-2.05,4.24-2.05c3.21,0,5.91,2.7,5.91,6.42s-2.7,6.42-5.91,6.42c-2.95,0-4.24-2.05-4.24-2.05v7.19h-2.18v-17.71ZM168.8,101.71c0-2.57-1.8-4.36-3.98-4.36s-3.98,1.8-3.98,4.36,1.8,4.36,3.98,4.36,3.98-1.8,3.98-4.36Z"/>
      <path class="st0" d="M173.17,104.53c0-2.05,1.28-3.34,3.59-3.72l4.62-.77c0-1.54-1.16-2.7-2.82-2.7-2.05,0-3.34,1.67-3.34,1.67l-1.41-1.41s1.67-2.31,4.75-2.31,5.01,2.05,5.01,4.75v7.83h-2.18v-1.67s-1.28,1.93-3.98,1.93-4.24-1.67-4.24-3.59ZM181.38,102.35v-.51l-3.98.64c-1.28.21-2.05,1.03-2.05,1.93,0,.98.82,1.8,2.31,1.8,2.05,0,3.72-1.67,3.72-3.85Z"/>
      <path class="st0" d="M187.41,95.55h2.18v1.8s1.28-2.05,3.9-2.05c2.9,0,4.95,2.05,4.95,5.39v7.19h-2.18v-7.19c0-2.05-1.28-3.34-3.08-3.34-2.05,0-3.59,1.54-3.59,3.85v6.67h-2.18v-12.32Z"/>
      <path class="st0" d="M201.15,113.01v-2.05s.64.26,1.41.26c1.16,0,1.82-.64,2.31-1.8l.64-1.54-5.01-12.32h2.31l3.72,9.5,3.72-9.5h2.31l-5.52,13.99c-1.03,2.57-2.18,3.72-4.11,3.72-1.03,0-1.8-.26-1.8-.26Z"/>
    </g>
  </g>
</svg>